<?xml version="1.0" encoding="iso-8859-1"?>
<!-- Uploaded to: SVG Repo, www.svgrepo.com, Generator: SVG Repo Mixer Tools -->
<svg height="800px" width="800px" version="1.1" id="Layer_1" xmlns="http://www.w3.org/2000/svg" xmlns:xlink="http://www.w3.org/1999/xlink" 
	 viewBox="0 0 512 512" xml:space="preserve">
<path style="fill:#E6DCD2;" d="M167.724,266.256c-17.655,0-105.931,52.965-114.759,105.931c-7.4,44.399,42.674,93.948,97.103,70.621
	C211.862,416.325,256,310.394,256,283.912v-17.655L167.724,266.256L167.724,266.256z"/>
<path style="fill:#CFC1B4;" d="M254.892,292.739c0.655-3.417,1.108-6.516,1.108-8.828v-17.655h-88.276
	c-7.802,0-29.398,10.366-51.832,26.483H254.892z"/>
<path style="fill:#F59A90;" d="M107.457,299.043c-25.532,19.898-50.054,46.515-54.492,73.144
	c-7.4,44.399,42.674,93.948,97.103,70.621c20.887-8.951,39.68-27.051,55.511-48.021
	C218.485,313.911,149.369,285.164,107.457,299.043z"/>
<path style="fill:#FF6E64;" d="M145.103,355.084c-23.735-27.357-66.069,5.803-82.392-7.83c-4.79,8.179-8.346,16.543-9.746,24.934
	c-7.179,43.074,39.753,90.787,92.259,72.311C143.507,427.306,172.429,386.579,145.103,355.084z"/>
<path style="fill:#A5907D;" d="M247.172,275.084H105.931C52.569,275.084,0,150.743,0,116.187c0-31.186,21.784-52.966,52.966-52.966
	c101.06,0,206.268,182.078,210.698,189.827c1.974,3.457,1.397,7.806-1.422,10.621l-8.828,8.828
	C251.758,274.153,249.517,275.084,247.172,275.084z"/>
<path style="fill:#E6DCD2;" d="M254.169,268.848c2.498-4.203,2.443-9.422-0.192-13.539
	C219.915,202.088,133.817,80.877,56.136,80.877c-23.374,0-38.481,15.249-38.481,38.841c0,37.163,57.26,155.366,96.202,155.366
	h129.401C247.727,275.084,251.87,272.717,254.169,268.848L254.169,268.848z"/>
<circle style="fill:#5A464B;" cx="84.601" cy="356.37" r="13.241"/>
<path style="fill:#E6DCD2;" d="M344.276,266.256c17.655,0,105.931,52.965,114.759,105.931c7.4,44.399-42.674,93.948-97.103,70.621
	C300.138,416.325,256,310.394,256,283.912v-17.655L344.276,266.256L344.276,266.256z"/>
<path style="fill:#CFC1B4;" d="M257.109,292.739c-0.655-3.417-1.108-6.516-1.108-8.828v-17.655h88.276
	c7.802,0,29.398,10.366,51.832,26.483H257.109z"/>
<path style="fill:#F59A90;" d="M404.543,299.043c25.532,19.898,50.053,46.514,54.492,73.144c7.4,44.399-42.674,93.948-97.103,70.621
	c-20.887-8.951-39.68-27.051-55.511-48.021C293.515,313.911,362.631,285.164,404.543,299.043z"/>
<path style="fill:#FF6E64;" d="M366.897,355.084c23.735-27.357,66.069,5.803,82.392-7.83c4.79,8.179,8.346,16.543,9.746,24.934
	c7.179,43.074-39.753,90.787-92.259,72.311C368.493,427.306,339.572,386.579,366.897,355.084z"/>
<path style="fill:#A5907D;" d="M258.586,272.497l-8.828-8.828c-2.819-2.815-3.396-7.164-1.422-10.621
	c4.431-7.75,109.638-189.827,210.698-189.827c31.181,0,52.966,21.78,52.966,52.966c0,34.556-52.569,158.897-105.931,158.897H264.828
	C262.483,275.084,260.242,274.153,258.586,272.497z"/>
<path style="fill:#E6DCD2;" d="M257.831,268.848c-2.498-4.203-2.443-9.422,0.192-13.539
	c34.062-53.222,120.161-174.432,197.843-174.432c23.374,0,38.481,15.249,38.481,38.841c0,37.163-57.26,155.366-96.202,155.366
	H268.743C264.273,275.084,260.13,272.717,257.831,268.848L257.831,268.848z"/>
<circle style="fill:#5A464B;" cx="427.399" cy="356.37" r="13.241"/>
<path style="fill:#908490;" d="M256,235.36c-1.673,0-3.198-0.943-3.948-2.44l-44.138-88.276c-1.086-2.182-0.207-4.832,1.974-5.922
	c2.189-1.081,4.828-0.211,5.922,1.974l40.19,80.38l40.19-80.38c1.095-2.185,3.75-3.048,5.922-1.974
	c2.182,1.09,3.06,3.742,1.974,5.922l-44.138,88.276C259.199,234.416,257.673,235.36,256,235.36z"/>
<path style="fill:#5A464B;" d="M256,381.015c-4.879,0-8.828-3.953-8.828-8.828V230.946c0-4.875,3.948-8.828,8.828-8.828
	c4.879,0,8.828,3.953,8.828,8.828v141.241C264.828,377.063,260.879,381.015,256,381.015z"/>
<path style="fill:#463246;" d="M256,292.739L256,292.739c-9.751,0-17.655-7.904-17.655-17.655v-17.655
	c0-9.751,7.904-17.655,17.655-17.655l0,0c9.751,0,17.655,7.904,17.655,17.655v17.655C273.655,284.835,265.751,292.739,256,292.739z"
	/>
</svg>