<?xml version="1.0" encoding="iso-8859-1"?>
<!-- Uploaded to: SVG Repo, www.svgrepo.com, Generator: SVG Repo Mixer Tools -->
<svg height="800px" width="800px" version="1.1" id="Layer_1" xmlns="http://www.w3.org/2000/svg" xmlns:xlink="http://www.w3.org/1999/xlink" 
	 viewBox="0 0 512.001 512.001" xml:space="preserve">
<path style="fill:#FF318F;" d="M256.625,202.289c-20.919-30.004-60.213-83.158-90.764-98.497
	c-56.634-28.434-125.845-5.49-154.278,51.146C-1.92,181.832-3.679,212.547,6.63,241.421c6.872,19.251,18.856,37.169,34.599,52.068
	c-15.743,14.899-27.727,32.816-34.599,52.068c-10.309,28.875-8.55,59.588,4.953,86.483c20.151,40.139,60.775,63.352,102.899,63.352
	c17.311,0,34.884-3.925,51.379-12.206c30.549-15.336,69.844-68.492,90.764-98.496V202.289z"/>
<path style="fill:#BF256B;" d="M470.771,293.489c15.743-14.899,27.727-32.816,34.599-52.068c10.309-28.875,8.55-59.588-4.953-86.483
	c-28.433-56.635-97.64-79.581-154.279-51.146c-22.06,11.076-52.33,43.894-90.138,97.675v184.043
	c37.809,53.783,68.078,86.599,90.138,97.674c16.5,8.284,34.065,12.206,51.381,12.206c42.12,0,82.75-23.217,102.9-63.353
	c13.502-26.894,15.261-57.607,4.953-86.482C498.499,326.305,486.515,308.388,470.771,293.489z"/>
<g>
	<path style="fill:#FF9900;" d="M312.208,241.443h-37.472V88.777c0-39.793,32.375-72.168,72.168-72.168v37.472
		c-19.131,0-34.695,15.565-34.695,34.696V241.443z"/>
	<path style="fill:#FF9900;" d="M237.264,241.443h-37.472V88.777c0-19.131-15.565-34.696-34.697-34.696V16.61
		c39.794,0,72.169,32.375,72.169,72.168V241.443z"/>
</g>
<path style="fill:#FFDB2D;" d="M256,137.355c-30.993,0-56.208,25.215-56.208,56.208v199.091c0,29.508,22.682,54.451,51.638,56.784
	c1.494,0.121,2.987,0.181,4.475,0.181c14.053,0,27.756-5.31,38.162-14.91c11.528-10.637,18.14-25.687,18.14-41.294V193.563
	C312.208,162.569,286.995,137.355,256,137.355z"/>
<path style="fill:#FFAE33;" d="M256,137.355v312.261c14.021-0.025,27.684-5.329,38.068-14.908
	c11.528-10.637,18.14-25.687,18.14-41.294V193.562C312.208,162.569,286.995,137.355,256,137.355z"/>
</svg>